<svg width="24" height="24" viewBox="0 0 24 24" fill="none" xmlns="http://www.w3.org/2000/svg">
<path d="M8.86901 2.35454C6.80584 3.07028 5.02656 4.42876 3.79253 6.23046C2.55849 8.03216 1.93474 10.1821 2.01291 12.3645C2.09107 14.5469 2.86702 16.6467 4.22678 18.3555C5.58654 20.0643 7.45845 21.292 9.56754 21.8583C11.2774 22.2995 13.0689 22.3189 14.7879 21.9148C16.3452 21.565 17.7849 20.8168 18.9661 19.7434C20.1955 18.5921 21.0879 17.1275 21.5473 15.5071C22.0466 13.7449 22.1355 11.8918 21.807 10.0899H12.2051V14.073H17.7659C17.6548 14.7082 17.4166 15.3145 17.0657 15.8556C16.7148 16.3967 16.2583 16.8614 15.7236 17.222C15.0445 17.6711 14.2791 17.9733 13.4764 18.1092C12.6713 18.2589 11.8455 18.2589 11.0404 18.1092C10.2244 17.9405 9.45251 17.6037 8.77383 17.1203C7.68354 16.3485 6.86487 15.2521 6.43467 13.9875C5.99719 12.6991 5.99719 11.3024 6.43467 10.0141C6.7409 9.11104 7.24714 8.28882 7.9156 7.60879C8.68058 6.81629 9.64906 6.24981 10.7148 5.9715C11.7805 5.69318 12.9023 5.71379 13.9571 6.03106C14.7811 6.284 15.5346 6.72594 16.1575 7.32164C16.7845 6.69786 17.4105 6.07247 18.0353 5.44547C18.358 5.1083 18.7096 4.78727 19.0274 4.44204C18.0766 3.55716 16.9604 2.8686 15.7429 2.41584C13.5259 1.61083 11.1001 1.5892 8.86901 2.35454Z" fill="white"/>
<path d="M8.86874 2.35435C11.0996 1.58848 13.5254 1.60955 15.7427 2.41404C16.9603 2.86987 18.076 3.56174 19.0256 4.44992C18.7029 4.79515 18.3625 5.11779 18.0334 5.45334C17.4075 6.07819 16.7821 6.70089 16.1573 7.32144C15.5343 6.72574 14.7808 6.28381 13.9568 6.03087C12.9024 5.71249 11.7806 5.69069 10.7146 5.96786C9.6486 6.24504 8.67952 6.81048 7.91371 7.60214C7.24525 8.28217 6.73901 9.1044 6.43278 10.0075L3.08858 7.41824C4.2856 5.04449 6.35816 3.22875 8.86874 2.35435Z" fill="#E33629"/>
<path d="M2.20136 9.98347C2.38111 9.09264 2.67953 8.22995 3.08863 7.41846L6.43283 10.0141C5.99535 11.3024 5.99535 12.6992 6.43283 13.9875C5.31864 14.8479 4.2039 15.7125 3.08863 16.5815C2.06448 14.5429 1.75213 12.2202 2.20136 9.98347Z" fill="#F8BD00"/>
<path d="M12.2048 10.0884H21.8067C22.1351 11.8902 22.0463 13.7434 21.5469 15.5056C21.0876 17.126 20.1952 18.5906 18.9658 19.7419C17.8866 18.8998 16.8025 18.0641 15.7232 17.222C16.2583 16.8611 16.715 16.3959 17.0659 15.8542C17.4169 15.3126 17.6548 14.7056 17.7656 14.0698H12.2048C12.2032 12.7437 12.2048 11.4161 12.2048 10.0884Z" fill="#587DBD"/>
<path d="M3.08688 16.5814C4.20215 15.721 5.31689 14.8563 6.43108 13.9873C6.86215 15.2524 7.68198 16.3489 8.77348 17.1202C9.45427 17.6013 10.2278 17.9354 11.0449 18.101C11.85 18.2507 12.6758 18.2507 13.4808 18.101C14.2836 17.9651 15.049 17.6629 15.7281 17.2137C16.8073 18.0558 17.8914 18.8915 18.9706 19.7336C17.7896 20.8075 16.3498 21.5563 14.7924 21.9066C13.0734 22.3107 11.2819 22.2913 9.57202 21.8501C8.21966 21.489 6.95647 20.8525 5.86162 19.9804C4.70278 19.0604 3.7563 17.9009 3.08688 16.5814Z" fill="#319F43"/>
</svg>
