<svg width="24" height="24" viewBox="0 0 24 24" fill="none" xmlns="http://www.w3.org/2000/svg">
<path d="M6 4.5C6 3.83696 6.25286 3.20107 6.70294 2.73223C7.15303 2.26339 7.76348 2 8.4 2H15.6C16.2365 2 16.847 2.26339 17.2971 2.73223C17.7471 3.20107 18 3.83696 18 4.5V19.5C18 20.163 17.7471 20.7989 17.2971 21.2678C16.847 21.7366 16.2365 22 15.6 22H8.4C7.76348 22 7.15303 21.7366 6.70294 21.2678C6.25286 20.7989 6 20.163 6 19.5V4.5ZM13.2 18.25C13.2 17.9185 13.0736 17.6005 12.8485 17.3661C12.6235 17.1317 12.3183 17 12 17C11.6817 17 11.3765 17.1317 11.1515 17.3661C10.9264 17.6005 10.8 17.9185 10.8 18.25C10.8 18.5815 10.9264 18.8995 11.1515 19.1339C11.3765 19.3683 11.6817 19.5 12 19.5C12.3183 19.5 12.6235 19.3683 12.8485 19.1339C13.0736 18.8995 13.2 18.5815 13.2 18.25Z" fill="#A0A0A0"/>
</svg>
